<svg width="1200" height="600" xmlns="http://www.w3.org/2000/svg">
<style>
.glyph { fill: black; stroke: none; }
.glyph-missing { fill: red; stroke: red; stroke-width: 1; opacity: 0.5; }
.baseline { stroke: #ccc; stroke-width: 1; }
.debug-text { font-family: monospace; font-size: 10px; fill: #666; }
</style>
<line x1="0" y1="300" x2="1200" y2="300" class="baseline"/>
<g transform="translate(50, 0)">
<path d="M -198 213 L -224 246 L -280 309 L -319 334 L -322 346 L -338 374 L -349 385 L -347 382 L -343 374 L -351 363 L -354 363 L -327 341 L -318 332 L -314 321 L -313 319 L -309 311 L -276 272 L -238 231 L -206 199 L -201 199 L -180 199 L -137 219 L -96 250 L -58 286 L -42 301 L -20 324 L 4 320 L 8 301 L 18 265 L 23 248 L 34 211 L 51 141 L 51 103 L 51 72 L 37 12 L 28 -18 L 26 -25 L 24 -36 L 22 -42 L 59 -31 L 128 -18 L 169 -18 L 169 28 L 181 116 L 191 162 L 173 167 L 133 182 L 94 201 L 59 224 L 48 239 L 59 249 L 43 259 L 43 283 L 57 295 L 96 295 L 148 252 L 162 224 L 179 216 L 202 210 L 203 211 L 203 213 L 203 216 L 205 222 L 207 234 L 215 261 L 228 285 L 247 302 L 262 304 L 283 295 L 288 286 L 297 267 L 301 259 L 313 234 L 339 187 L 359 164 L 348 153 L 295 164 L 205 189 L 157 204 L 156 205 L 136 217 L 131 222 L 123 234 L 96 259 L 82 266 L 80 262 L 84 260 L 97 248 L 111 234 L 124 220 L 128 215 L 136 207 L 177 191 L 230 174 L 286 158 L 310 151 L 329 146 L 336 144 L 348 140 L 355 138 L 365 135 L 382 129 L 391 126 L 394 129 L 393 155 L 369 213 L 357 236 L 353 246 L 351 250 L 343 268 L 330 297 L 310 321 L 282 343 L 259 355 L 216 379 L 168 384 L 157 393 L 157 413 L 137 418 L 108 440 L 108 460 L 108 471 L 115 493 L 120 502 L 133 512 L 133 517 L 133 522 L 131 524 L 118 513 L 96 508 L 15 529 L 13 518 L 3 500 L -3 490 L -4 488 L -6 486 L -6 485 L -5 486 L -6 484 L 5 481 L 11 469 L 13 461 L 14 458 L 14 456 L 17 447 L 47 445 L 78 423 L 86 396 L 75 385 L 29 373 L -36 344 L -86 309 L -130 265 L -155 238 L -157 235 L -163 229 L -165 226 L -178 213 Z M 306 189 L 283 230 L 276 242 L 265 263 L 258 275 L 248 265 L 239 233 L 236 219 L 235 214 L 235 208 L 234 204 Z M 95 534 L 109 546 L 128 553 L 147 553 L 165 533 L 165 517 L 165 497 L 147 486 L 139 472 L 139 460 L 139 451 L 157 442 L 167 440 L 189 461 L 214 511 L 214 536 L 214 555 L 193 579 L 161 593 L 121 598 L 102 598 L 75 598 L 27 580 L 19 556 Z M -200 -122 L -200 -119 L -199 -113 L -198 -102 L -198 -97 L -198 -60 L -220 10 L -239 45 L -232 57 L -217 82 L -209 93 L -224 98 L -238 97 L -257 84 L -257 73 L -257 38 L -241 -31 L -230 -65 L -225 -82 L -216 -111 L -213 -126 Z M -97 -84 L -63 -73 L -27 -57 L -33 -51 L -46 -38 L -52 -30 L -81 -1 L -144 57 L -182 79 L -186 76 L -187 71 L -189 67 L -194 61 L -196 58 L -205 46 L -188 16 L -165 -56 L -165 -91 L -165 -96 L -166 -104 L -166 -109 L -149 -102 L -114 -90 Z M -347 -249 L -345 -256 L -342 -255 L -326 -250 L -308 -244 L -294 -239 L -293 -240 L -291 -237 L -318 -240 Z M 163 -189 L 171 -177 L 183 -152 L 183 -138 L 183 -128 L 180 -108 L 178 -98 L 177 -95 L 177 -90 L 176 -87 L 175 -84 L 173 -74 L 170 -55 L 169 -45 L 100 -45 L -30 -87 L -94 -112 L -99 -114 L -106 -116 L -111 -118 L -115 -120 L -123 -123 L -127 -125 L -140 -130 L -151 -133 L -171 -140 L -212 -156 L -230 -165 L -224 -170 L -212 -180 L -206 -185 L -203 -188 L -197 -193 L -193 -196 L -129 -181 L -59 -181 L -22 -181 L 52 -188 L 87 -193 L 99 -194 L 123 -196 L 135 -198 Z M -210 -221 L -225 -206 L -238 -197 L -240 -194 L -245 -190 L -247 -188 L -251 -186 L -252 -183 L -271 -199 L -276 -216 L -268 -227 L -250 -245 L -234 -245 L -142 -245 L -52 -236 L -22 -234 L 39 -231 L 70 -231 L 108 -231 L 182 -240 L 220 -245 L 227 -246 L 234 -247 L 240 -248 L 248 -249 L 257 -250 L 199 -232 L 194 -226 L 178 -218 L 170 -216 L 139 -224 L 91 -218 L -9 -208 L -59 -208 L -131 -208 L -196 -224 Z M -420 -267 L -406 -250 L -389 -241 L -352 -227 L -332 -221 L -328 -219 L -323 -217 L -311 -214 L -306 -212 L -301 -186 L -262 -152 L -239 -139 L -256 -88 L -288 19 L -288 73 L -288 84 L -276 103 L -256 117 L -233 125 L -221 125 L -215 125 L -193 117 L -170 106 L -149 94 L -143 90 L -105 65 L -37 -1 L -8 -35 L 2 -2 L 19 68 L 19 103 L 19 136 L 3 199 L -8 231 L -15 253 L -22 278 L -23 281 L -31 274 L -49 258 L -59 250 L -74 236 L -105 208 L -140 186 L -179 172 L -201 172 L -213 172 L -259 211 L -307 262 L -347 313 L -353 325 L -368 336 L -397 362 L -411 376 L -413 389 L -402 399 L -400 399 L -403 400 L -409 404 L -411 406 L -417 409 L -420 411 L -422 427 L -398 443 L -359 431 L -302 386 L -294 351 L -262 330 L -209 277 L -187 248 L -160 277 L -113 325 L -60 364 L 5 394 L 49 405 L 45 413 L 40 417 L 31 419 L 11 421 L 2 422 L -1 422 L -4 427 L -5 429 L -5 431 L -7 433 L -10 442 L -19 459 L -29 459 L -40 475 L -38 481 L -33 493 L -31 498 L -29 502 L -24 510 L -16 526 L -16 536 L -16 584 L 49 625 L 102 625 L 129 625 L 181 617 L 222 597 L 246 563 L 246 536 L 246 504 L 217 443 L 189 420 L 189 410 L 196 410 L 220 404 L 246 396 L 268 387 L 272 382 L 278 379 L 295 371 L 325 352 L 338 338 L 350 323 L 372 280 L 383 256 L 386 250 L 387 248 L 388 244 L 389 242 L 395 233 L 408 203 L 418 169 L 425 138 L 425 127 L 425 117 L 407 102 L 397 97 L 389 99 L 374 104 L 366 106 L 358 108 L 343 113 L 335 115 L 306 123 L 250 139 L 221 150 L 212 104 L 200 15 L 200 -31 L 200 -45 L 204 -71 L 207 -85 L 207 -87 L 209 -100 L 213 -125 L 213 -138 L 213 -164 L 197 -193 L 205 -196 L 214 -204 L 218 -209 L 221 -210 L 226 -212 L 234 -214 L 264 -222 L 321 -241 L 347 -256 L 355 -267 L 349 -282 L 312 -282 L 241 -275 L 206 -270 L 171 -265 L 103 -258 L 70 -258 L 32 -258 L -45 -261 L -83 -265 L -120 -268 L -196 -272 L -234 -272 L -253 -272 L -269 -263 L -285 -264 L -315 -269 L -329 -272 L -345 -276 L -380 -281 L -400 -282 Z M 12 508 L 28 520 L 51 518 L 71 504 L 50 499 L 46 499 L 40 497 L 32 495 L 28 495 Z" transform="translate(0.0, 300.0) scale(0.3, -0.3)" class="glyph"/>
</g>
<g transform="translate(170.0, 0)">
<path d="M -62 -231 L -62 -223 L -62 -211 L -70 -190 L -75 -179 L -72 -171 L -66 -165 L -69 -164 L -76 -167 L -79 -171 L -79 -187 L -67 -216 L -65 -231 Z M -54 -227 L -42 -223 L -19 -215 L -8 -210 L -19 -198 L -41 -176 L -55 -169 L -62 -178 L -55 -189 L -51 -213 L -51 -226 Z M 33 -24 L 41 -18 L 52 -22 L 52 -24 L 54 -27 L 54 -29 L 54 -37 L 48 -41 L 45 -49 L 48 -52 L 53 -54 L 68 -41 L 68 -24 L 68 -12 L 43 -5 L 34 -5 L 27 -5 L 11 -9 L 9 -17 Z M 52 -252 L 54 -248 L 58 -241 L 58 -236 L 58 -228 L 55 -215 L 53 -208 L 21 -208 L -42 -228 L -70 -245 L -64 -251 L -60 -254 L -49 -252 L -28 -250 L -17 -250 L -2 -250 L 29 -253 L 44 -255 Z M -65 -264 L -68 -261 L -75 -254 L -79 -252 L -83 -255 L -85 -262 L -80 -270 L -72 -270 L -48 -270 L -1 -266 L 23 -266 L 37 -266 L 65 -271 L 79 -271 L 74 -266 L 61 -265 L 55 -262 L 45 -265 L 29 -263 L -1 -260 L -17 -260 L -28 -260 L -49 -262 L -60 -265 Z M -61 -127 L -79 -107 L -94 -91 L -96 -91 L -97 -91 L -90 -101 L -79 -114 L -66 -127 L -61 -130 L -41 -128 L -19 -100 L -4 -90 L 3 -93 L 7 -110 L 18 -143 L 18 -161 L 18 -172 L 13 -194 L 10 -205 L 30 -198 L 53 -198 L 53 -172 L 61 -143 L 47 -141 L 24 -127 L 15 -118 L 19 -115 L 14 -112 L 14 -104 L 19 -100 L 42 -100 L 52 -122 L 64 -126 L 65 -125 L 67 -117 L 73 -97 L 84 -97 L 91 -101 L 97 -112 L 107 -132 L 115 -142 L 111 -146 L 102 -144 L 84 -140 L 75 -138 L 87 -142 L 111 -150 L 124 -152 L 123 -123 L 83 -78 L 54 -73 L 50 -70 L 50 -64 L 44 -62 L 35 -56 L 35 -49 L 35 -44 L 40 -35 L 42 -30 L 32 -34 L 7 -27 L 1 -40 L 6 -44 L 8 -52 L 24 -52 L 29 -69 L 25 -73 L 2 -81 L -38 -109 L -54 -127 Z M 96 -133 L 93 -127 L 87 -115 L 83 -109 L 78 -117 L 76 -129 Z M -133 -277 L -128 -271 L -96 -260 L -94 -252 L -82 -240 L -75 -236 L -79 -219 L -90 -185 L -90 -167 L -90 -166 L -89 -165 L -89 -164 L -79 -154 L -68 -154 L -59 -154 L -40 -165 L -23 -180 L -7 -196 L -1 -202 L 1 -191 L 7 -172 L 7 -161 L 7 -147 L -3 -120 L -6 -106 L -20 -116 L -44 -140 L -62 -140 L -67 -140 L -81 -128 L -96 -111 L -108 -95 L -110 -91 L -115 -88 L -125 -80 L -130 -75 L -130 -70 L -126 -68 L -132 -64 L -133 -59 L -125 -53 L -114 -56 L -94 -70 L -91 -82 L -82 -89 L -63 -104 L -57 -114 L -26 -80 L 16 -65 L 14 -63 L 1 -61 L -5 -50 L -12 -45 L -7 -24 L 9 5 L 34 5 L 49 5 L 79 -5 L 79 -24 L 79 -46 L 61 -61 L 61 -63 L 94 -69 L 136 -121 L 136 -154 L 136 -155 L 134 -159 L 134 -160 L 126 -164 L 112 -160 L 85 -153 L 71 -148 L 69 -162 L 65 -189 L 65 -203 L 65 -211 L 69 -228 L 69 -236 L 69 -246 L 64 -254 L 75 -259 L 100 -267 L 111 -273 L 114 -278 L 111 -283 L 88 -283 L 46 -275 L 23 -275 L -1 -275 L -48 -280 L -72 -280 L -78 -280 L -84 -277 L -95 -279 L -115 -283 L -126 -283 Z M 5 -34 L 11 -31 L 23 -35 L 20 -35 L 14 -37 L 11 -37 Z" transform="translate(0.0, 300.0) scale(0.3, -0.3)" class="glyph"/>
</g>
<g transform="translate(290.0, 0)">
<path d="M -62 -231 L -62 -223 L -62 -211 L -70 -190 L -75 -179 L -72 -171 L -66 -165 L -69 -164 L -76 -167 L -79 -171 L -79 -187 L -67 -216 L -65 -231 Z M -54 -227 L -42 -223 L -19 -215 L -8 -210 L -19 -198 L -41 -176 L -55 -169 L -62 -178 L -55 -189 L -51 -213 L -51 -226 Z M 33 -24 L 41 -18 L 52 -22 L 52 -24 L 54 -27 L 54 -29 L 54 -37 L 48 -41 L 45 -49 L 48 -52 L 53 -54 L 68 -41 L 68 -24 L 68 -12 L 43 -5 L 34 -5 L 27 -5 L 11 -9 L 9 -17 Z M 52 -252 L 54 -248 L 58 -241 L 58 -236 L 58 -228 L 55 -215 L 53 -208 L 21 -208 L -42 -228 L -70 -245 L -64 -251 L -60 -254 L -49 -252 L -28 -250 L -17 -250 L -2 -250 L 29 -253 L 44 -255 Z M -65 -264 L -68 -261 L -75 -254 L -79 -252 L -83 -255 L -85 -262 L -80 -270 L -72 -270 L -48 -270 L -1 -266 L 23 -266 L 37 -266 L 65 -271 L 79 -271 L 74 -266 L 61 -265 L 55 -262 L 45 -265 L 29 -263 L -1 -260 L -17 -260 L -28 -260 L -49 -262 L -60 -265 Z M -61 -127 L -79 -107 L -94 -91 L -96 -91 L -97 -91 L -90 -101 L -79 -114 L -66 -127 L -61 -130 L -41 -128 L -19 -100 L -4 -90 L 3 -93 L 7 -110 L 18 -143 L 18 -161 L 18 -172 L 13 -194 L 10 -205 L 30 -198 L 53 -198 L 53 -172 L 61 -143 L 47 -141 L 24 -127 L 15 -118 L 19 -115 L 14 -112 L 14 -104 L 19 -100 L 42 -100 L 52 -122 L 64 -126 L 65 -125 L 67 -117 L 73 -97 L 84 -97 L 91 -101 L 97 -112 L 107 -132 L 115 -142 L 111 -146 L 102 -144 L 84 -140 L 75 -138 L 87 -142 L 111 -150 L 124 -152 L 123 -123 L 83 -78 L 54 -73 L 50 -70 L 50 -64 L 44 -62 L 35 -56 L 35 -49 L 35 -44 L 40 -35 L 42 -30 L 32 -34 L 7 -27 L 1 -40 L 6 -44 L 8 -52 L 24 -52 L 29 -69 L 25 -73 L 2 -81 L -38 -109 L -54 -127 Z M 96 -133 L 93 -127 L 87 -115 L 83 -109 L 78 -117 L 76 -129 Z M -133 -277 L -128 -271 L -96 -260 L -94 -252 L -82 -240 L -75 -236 L -79 -219 L -90 -185 L -90 -167 L -90 -166 L -89 -165 L -89 -164 L -79 -154 L -68 -154 L -59 -154 L -40 -165 L -23 -180 L -7 -196 L -1 -202 L 1 -191 L 7 -172 L 7 -161 L 7 -147 L -3 -120 L -6 -106 L -20 -116 L -44 -140 L -62 -140 L -67 -140 L -81 -128 L -96 -111 L -108 -95 L -110 -91 L -115 -88 L -125 -80 L -130 -75 L -130 -70 L -126 -68 L -132 -64 L -133 -59 L -125 -53 L -114 -56 L -94 -70 L -91 -82 L -82 -89 L -63 -104 L -57 -114 L -26 -80 L 16 -65 L 14 -63 L 1 -61 L -5 -50 L -12 -45 L -7 -24 L 9 5 L 34 5 L 49 5 L 79 -5 L 79 -24 L 79 -46 L 61 -61 L 61 -63 L 94 -69 L 136 -121 L 136 -154 L 136 -155 L 134 -159 L 134 -160 L 126 -164 L 112 -160 L 85 -153 L 71 -148 L 69 -162 L 65 -189 L 65 -203 L 65 -211 L 69 -228 L 69 -236 L 69 -246 L 64 -254 L 75 -259 L 100 -267 L 111 -273 L 114 -278 L 111 -283 L 88 -283 L 46 -275 L 23 -275 L -1 -275 L -48 -280 L -72 -280 L -78 -280 L -84 -277 L -95 -279 L -115 -283 L -126 -283 Z M 5 -34 L 11 -31 L 23 -35 L 20 -35 L 14 -37 L 11 -37 Z" transform="translate(0.0, 300.0) scale(0.3, -0.3)" class="glyph"/>
</g>
<g transform="translate(410.0, 0)">
<path d="M -114 -284 L -119 -284 L -126 -276 L -126 -271 L -126 -265 L -117 -256 L -105 -248 L -92 -242 L -88 -239 L -88 -228 L -96 -210 L -107 -192 L -115 -173 L -115 -162 L -115 -146 L -96 -131 L -84 -131 L -76 -131 L -53 -142 L -31 -157 L -11 -174 L -6 -180 L 30 -101 L 24 -90 L -2 -87 L -12 -84 L -17 -77 L -19 -68 L -26 -65 L -26 -58 L -26 -52 L -18 -44 L -15 -41 L -4 -31 L 8 -15 L 20 -4 L 37 1 L 54 1 L 81 1 L 113 -26 L 130 -69 L 134 -120 L 134 -144 L 134 -156 L 127 -171 L 115 -173 L 108 -194 L 92 -233 L 92 -256 L 96 -260 L 111 -265 L 111 -273 L 111 -278 L 104 -284 L 100 -284 Z M 53 -21 L 38 -21 L 27 -25 L 33 -27 L 45 -32 L 50 -35 L 50 -34 L 52 -34 L 55 -33 L 57 -33 L 65 -33 L 79 -42 L 79 -52 L 79 -55 L 72 -66 L 63 -82 L 56 -103 L 56 -118 L 56 -124 L 56 -136 L 57 -142 L 60 -138 L 61 -123 L 64 -108 L 74 -98 L 86 -98 L 104 -98 L 108 -124 L 108 -140 L 108 -143 L 109 -150 L 111 -152 L 111 -145 L 111 -128 L 108 -85 L 97 -47 L 74 -21 Z M 44 -55 L 36 -50 L 20 -44 L 11 -41 L 9 -44 L 5 -50 L 2 -52 L 0 -55 L 3 -57 L 3 -63 L 4 -66 L 13 -68 L 30 -74 L 38 -80 L 40 -73 L 48 -61 L 52 -55 Z M -6 -208 L -14 -203 L -34 -185 L -54 -167 L -75 -154 L -84 -154 L -87 -154 L -93 -156 L -93 -161 L -93 -171 L -84 -189 L -74 -207 L -65 -227 L -65 -239 L -65 -247 L -77 -258 L -83 -262 L 71 -262 L 71 -236 L 87 -192 L 93 -167 L 87 -165 L 86 -153 L 86 -148 L 86 -118 L 82 -124 L 81 -141 L 80 -156 L 71 -166 L 58 -166 L 42 -166 L 35 -146 L 7 -208 Z" transform="translate(0.0, 300.0) scale(0.3, -0.3)" class="glyph"/>
</g>
</svg>