<svg width="1200" height="600" xmlns="http://www.w3.org/2000/svg">
<style>
.glyph { fill: black; stroke: none; }
.glyph-missing { fill: red; stroke: red; stroke-width: 1; opacity: 0.5; }
.baseline { stroke: #ccc; stroke-width: 1; }
.debug-text { font-family: monospace; font-size: 10px; fill: #666; }
</style>
<line x1="0" y1="300" x2="1200" y2="300" class="baseline"/>
<g transform="translate(50, 0)">
<path d="M -195 213 L -221 246 L -277 309 L -316 334 L -319 346 L -335 374 L -346 385 L -344 382 L -340 374 L -348 363 L -351 363 L -324 341 L -315 332 L -311 321 L -310 319 L -306 311 L -273 272 L -235 231 L -203 199 L -198 199 L -177 199 L -134 219 L -93 250 L -55 286 L -39 301 L -17 324 L 7 320 L 11 301 L 21 265 L 26 248 L 37 211 L 54 141 L 54 103 L 54 72 L 40 12 L 31 -18 L 29 -25 L 27 -36 L 25 -42 L 62 -31 L 131 -18 L 172 -18 L 172 28 L 184 116 L 194 162 L 176 167 L 136 182 L 97 201 L 62 224 L 51 239 L 62 249 L 46 259 L 46 283 L 60 295 L 99 295 L 151 252 L 165 224 L 182 216 L 205 210 L 206 211 L 206 213 L 206 216 L 208 222 L 210 234 L 218 261 L 231 285 L 250 302 L 265 304 L 286 295 L 291 286 L 300 267 L 304 259 L 316 234 L 342 187 L 362 164 L 351 153 L 298 164 L 208 189 L 160 204 L 159 205 L 139 217 L 134 222 L 126 234 L 99 259 L 85 266 L 83 262 L 87 260 L 100 248 L 114 234 L 127 220 L 131 215 L 139 207 L 180 191 L 233 174 L 289 158 L 313 151 L 332 146 L 339 144 L 351 140 L 358 138 L 368 135 L 385 129 L 394 126 L 397 129 L 396 155 L 372 213 L 360 236 L 356 246 L 354 250 L 346 268 L 333 297 L 313 321 L 285 343 L 262 355 L 219 379 L 171 384 L 160 393 L 160 413 L 140 418 L 111 440 L 111 460 L 111 471 L 118 493 L 123 502 L 136 512 L 136 517 L 136 522 L 134 524 L 121 513 L 99 508 L 18 529 L 16 518 L 6 500 L 0 490 L -1 488 L -3 486 L -3 485 L -2 486 L -3 484 L 8 481 L 14 469 L 16 461 L 17 458 L 17 456 L 20 447 L 50 445 L 81 423 L 89 396 L 78 385 L 32 373 L -33 344 L -83 309 L -127 265 L -152 238 L -154 235 L -160 229 L -162 226 L -175 213 Z M 309 189 L 286 230 L 279 242 L 268 263 L 261 275 L 251 265 L 242 233 L 239 219 L 238 214 L 238 208 L 237 204 Z M 98 534 L 112 546 L 131 553 L 150 553 L 168 533 L 168 517 L 168 497 L 150 486 L 142 472 L 142 460 L 142 451 L 160 442 L 170 440 L 192 461 L 217 511 L 217 536 L 217 555 L 196 579 L 164 593 L 124 598 L 105 598 L 78 598 L 30 580 L 22 556 Z M -197 -122 L -197 -119 L -196 -113 L -195 -102 L -195 -97 L -195 -60 L -217 10 L -236 45 L -229 57 L -214 82 L -206 93 L -221 98 L -235 97 L -254 84 L -254 73 L -254 38 L -238 -31 L -227 -65 L -222 -82 L -213 -111 L -210 -126 Z M -94 -84 L -60 -73 L -24 -57 L -30 -51 L -43 -38 L -49 -30 L -78 -1 L -141 57 L -179 79 L -183 76 L -184 71 L -186 67 L -191 61 L -193 58 L -202 46 L -185 16 L -162 -56 L -162 -91 L -162 -96 L -163 -104 L -163 -109 L -146 -102 L -111 -90 Z M -344 -249 L -342 -256 L -339 -255 L -323 -250 L -305 -244 L -291 -239 L -290 -240 L -288 -237 L -315 -240 Z M 166 -189 L 174 -177 L 186 -152 L 186 -138 L 186 -128 L 183 -108 L 181 -98 L 180 -95 L 180 -90 L 179 -87 L 178 -84 L 176 -74 L 173 -55 L 172 -45 L 103 -45 L -27 -87 L -91 -112 L -96 -114 L -103 -116 L -108 -118 L -112 -120 L -120 -123 L -124 -125 L -137 -130 L -148 -133 L -168 -140 L -209 -156 L -227 -165 L -221 -170 L -209 -180 L -203 -185 L -200 -188 L -194 -193 L -190 -196 L -126 -181 L -56 -181 L -19 -181 L 55 -188 L 90 -193 L 102 -194 L 126 -196 L 138 -198 Z M -207 -221 L -222 -206 L -235 -197 L -237 -194 L -242 -190 L -244 -188 L -248 -186 L -249 -183 L -268 -199 L -273 -216 L -265 -227 L -247 -245 L -231 -245 L -139 -245 L -49 -236 L -19 -234 L 42 -231 L 73 -231 L 111 -231 L 185 -240 L 223 -245 L 230 -246 L 237 -247 L 243 -248 L 251 -249 L 260 -250 L 202 -232 L 197 -226 L 181 -218 L 173 -216 L 142 -224 L 94 -218 L -6 -208 L -56 -208 L -128 -208 L -193 -224 Z M -417 -267 L -403 -250 L -386 -241 L -349 -227 L -329 -221 L -325 -219 L -320 -217 L -308 -214 L -303 -212 L -298 -186 L -259 -152 L -236 -139 L -253 -88 L -285 19 L -285 73 L -285 84 L -273 103 L -253 117 L -230 125 L -218 125 L -212 125 L -190 117 L -167 106 L -146 94 L -140 90 L -102 65 L -34 -1 L -5 -35 L 5 -2 L 22 68 L 22 103 L 22 136 L 6 199 L -5 231 L -12 253 L -19 278 L -20 281 L -28 274 L -46 258 L -56 250 L -71 236 L -102 208 L -137 186 L -176 172 L -198 172 L -210 172 L -256 211 L -304 262 L -344 313 L -350 325 L -365 336 L -394 362 L -408 376 L -410 389 L -399 399 L -397 399 L -400 400 L -406 404 L -408 406 L -414 409 L -417 411 L -419 427 L -395 443 L -356 431 L -299 386 L -291 351 L -259 330 L -206 277 L -184 248 L -157 277 L -110 325 L -57 364 L 8 394 L 52 405 L 48 413 L 43 417 L 34 419 L 14 421 L 5 422 L 2 422 L -1 427 L -2 429 L -2 431 L -4 433 L -7 442 L -16 459 L -26 459 L -37 475 L -35 481 L -30 493 L -28 498 L -26 502 L -21 510 L -13 526 L -13 536 L -13 584 L 52 625 L 105 625 L 132 625 L 184 617 L 225 597 L 249 563 L 249 536 L 249 504 L 220 443 L 192 420 L 192 410 L 199 410 L 223 404 L 249 396 L 271 387 L 275 382 L 281 379 L 298 371 L 328 352 L 341 338 L 353 323 L 375 280 L 386 256 L 389 250 L 390 248 L 391 244 L 392 242 L 398 233 L 411 203 L 421 169 L 428 138 L 428 127 L 428 117 L 410 102 L 400 97 L 392 99 L 377 104 L 369 106 L 361 108 L 346 113 L 338 115 L 309 123 L 253 139 L 224 150 L 215 104 L 203 15 L 203 -31 L 203 -45 L 207 -71 L 210 -85 L 210 -87 L 212 -100 L 216 -125 L 216 -138 L 216 -164 L 200 -193 L 208 -196 L 217 -204 L 221 -209 L 224 -210 L 229 -212 L 237 -214 L 267 -222 L 324 -241 L 350 -256 L 358 -267 L 352 -282 L 315 -282 L 244 -275 L 209 -270 L 174 -265 L 106 -258 L 73 -258 L 35 -258 L -42 -261 L -80 -265 L -117 -268 L -193 -272 L -231 -272 L -250 -272 L -266 -263 L -282 -264 L -312 -269 L -326 -272 L -342 -276 L -377 -281 L -397 -282 Z M 15 508 L 31 520 L 54 518 L 74 504 L 53 499 L 49 499 L 43 497 L 35 495 L 31 495 Z" transform="translate(0.0, 300.0) scale(0.15, -0.15)" class="glyph"/>
</g>
<g transform="translate(170.0, 0)">
<path d="M -351 -284 L -358 -284 L -370 -270 L -370 -263 L -370 -244 L -335 -218 L -294 -197 L -259 -175 L -259 -160 L -259 -125 L -284 -62 L -315 -1 L -340 62 L -340 97 L -340 133 L -301 175 L -264 175 L -236 175 L -168 133 L -102 74 L -41 13 L -20 -5 L 12 73 L 67 230 L 96 309 L 92 329 L 60 354 L 18 370 L -26 380 L -42 386 L -53 407 L -53 434 L -53 433 L -59 434 L -76 442 L -76 450 L -76 454 L -69 466 L -59 479 L -49 491 L -46 494 L -39 504 L -27 524 L -21 534 L 10 583 L 91 621 L 148 621 L 201 621 L 275 575 L 324 500 L 351 404 L 364 304 L 367 207 L 367 169 L 367 158 L 364 133 L 355 111 L 337 97 L 323 97 L 316 97 L 313 98 L 313 100 L 306 60 L 283 -17 L 260 -94 L 243 -172 L 243 -213 L 243 -225 L 261 -239 L 282 -249 L 300 -260 L 300 -268 L 300 -276 L 290 -284 L 283 -284 Z M 148 593 L 113 593 L 45 574 L 20 548 L 82 536 L 138 507 L 147 511 L 160 511 L 179 511 L 207 491 L 207 471 L 207 461 L 185 423 L 158 370 L 136 305 L 136 269 L 136 261 L 138 221 L 144 180 L 157 148 L 169 148 L 174 148 L 189 154 L 189 160 L 189 178 L 183 213 L 183 231 L 183 257 L 210 302 L 239 302 L 256 302 L 277 288 L 289 266 L 294 239 L 294 225 L 294 205 L 286 168 L 286 148 L 286 136 L 303 125 L 314 125 L 323 125 L 331 136 L 334 152 L 334 169 L 334 175 L 334 207 L 332 294 L 322 387 L 299 478 L 258 549 L 194 593 Z M 129 481 L 100 497 L 40 517 L 8 525 L 8 526 L 1 506 L -27 475 L -38 457 L -29 455 L -21 444 L -19 429 L -19 412 L -17 406 L -17 407 L 18 402 L 86 376 L 109 348 L 117 383 L 154 446 L 174 475 L 174 485 L 165 485 L 154 485 L 146 481 Z M 14 503 L 28 503 L 46 486 L 59 484 L 48 479 L 27 472 L 14 472 L -3 472 L -3 489 Z M -24 -40 L -38 -30 L -76 6 L -118 47 L -164 90 L -207 125 L -248 147 L -264 147 L -285 147 L -307 120 L -307 100 L -307 65 L -282 1 L -253 -60 L -228 -124 L -228 -159 L -228 -176 L -253 -202 L -286 -223 L -321 -243 L -331 -254 L 224 -254 L 216 -247 L 212 -227 L 212 -217 L 212 -175 L 227 -94 L 248 -15 L 272 65 L 281 105 L 267 109 L 256 131 L 256 145 L 256 170 L 259 220 L 259 245 L 259 255 L 251 275 L 239 275 L 230 275 L 221 265 L 216 250 L 215 233 L 215 227 L 215 211 L 223 180 L 223 164 L 223 152 L 211 135 L 193 125 L 171 120 L 161 120 L 143 120 L 119 145 L 106 180 L 103 219 L 105 233 L 90 199 L 64 130 L 38 60 L 9 -8 L -9 -40 Z" transform="translate(0.0, 300.0) scale(0.15, -0.15)" class="glyph"/>
</g>
<g transform="translate(290.0, 0)">
<path d="M -351 -284 L -358 -284 L -370 -270 L -370 -263 L -370 -244 L -335 -218 L -294 -197 L -259 -175 L -259 -160 L -259 -125 L -284 -62 L -315 -1 L -340 62 L -340 97 L -340 133 L -301 175 L -264 175 L -236 175 L -168 133 L -102 74 L -41 13 L -20 -5 L 12 73 L 67 230 L 96 309 L 92 329 L 60 354 L 18 370 L -26 380 L -42 386 L -53 407 L -53 434 L -53 433 L -59 434 L -76 442 L -76 450 L -76 454 L -69 466 L -59 479 L -49 491 L -46 494 L -39 504 L -27 524 L -21 534 L 10 583 L 91 621 L 148 621 L 201 621 L 275 575 L 324 500 L 351 404 L 364 304 L 367 207 L 367 169 L 367 158 L 364 133 L 355 111 L 337 97 L 323 97 L 316 97 L 313 98 L 313 100 L 306 60 L 283 -17 L 260 -94 L 243 -172 L 243 -213 L 243 -225 L 261 -239 L 282 -249 L 300 -260 L 300 -268 L 300 -276 L 290 -284 L 283 -284 Z M 148 593 L 113 593 L 45 574 L 20 548 L 82 536 L 138 507 L 147 511 L 160 511 L 179 511 L 207 491 L 207 471 L 207 461 L 185 423 L 158 370 L 136 305 L 136 269 L 136 261 L 138 221 L 144 180 L 157 148 L 169 148 L 174 148 L 189 154 L 189 160 L 189 178 L 183 213 L 183 231 L 183 257 L 210 302 L 239 302 L 256 302 L 277 288 L 289 266 L 294 239 L 294 225 L 294 205 L 286 168 L 286 148 L 286 136 L 303 125 L 314 125 L 323 125 L 331 136 L 334 152 L 334 169 L 334 175 L 334 207 L 332 294 L 322 387 L 299 478 L 258 549 L 194 593 Z M 129 481 L 100 497 L 40 517 L 8 525 L 8 526 L 1 506 L -27 475 L -38 457 L -29 455 L -21 444 L -19 429 L -19 412 L -17 406 L -17 407 L 18 402 L 86 376 L 109 348 L 117 383 L 154 446 L 174 475 L 174 485 L 165 485 L 154 485 L 146 481 Z M 14 503 L 28 503 L 46 486 L 59 484 L 48 479 L 27 472 L 14 472 L -3 472 L -3 489 Z M -24 -40 L -38 -30 L -76 6 L -118 47 L -164 90 L -207 125 L -248 147 L -264 147 L -285 147 L -307 120 L -307 100 L -307 65 L -282 1 L -253 -60 L -228 -124 L -228 -159 L -228 -176 L -253 -202 L -286 -223 L -321 -243 L -331 -254 L 224 -254 L 216 -247 L 212 -227 L 212 -217 L 212 -175 L 227 -94 L 248 -15 L 272 65 L 281 105 L 267 109 L 256 131 L 256 145 L 256 170 L 259 220 L 259 245 L 259 255 L 251 275 L 239 275 L 230 275 L 221 265 L 216 250 L 215 233 L 215 227 L 215 211 L 223 180 L 223 164 L 223 152 L 211 135 L 193 125 L 171 120 L 161 120 L 143 120 L 119 145 L 106 180 L 103 219 L 105 233 L 90 199 L 64 130 L 38 60 L 9 -8 L -9 -40 Z" transform="translate(0.0, 300.0) scale(0.15, -0.15)" class="glyph"/>
</g>
</svg>