<svg width="1200" height="600" xmlns="http://www.w3.org/2000/svg">
<style>
.glyph { fill: black; stroke: none; }
.glyph-missing { fill: red; stroke: red; stroke-width: 1; opacity: 0.5; }
.baseline { stroke: #ccc; stroke-width: 1; }
.debug-text { font-family: monospace; font-size: 10px; fill: #666; }
</style>
<line x1="0" y1="300" x2="1200" y2="300" class="baseline"/>
<g transform="translate(50, 0)">
<path d="M -351 -284 L -358 -284 L -370 -270 L -370 -263 L -370 -244 L -335 -218 L -294 -197 L -259 -175 L -259 -160 L -259 -125 L -284 -62 L -315 -1 L -340 62 L -340 97 L -340 133 L -301 175 L -264 175 L -236 175 L -168 133 L -102 74 L -41 13 L -20 -5 L 12 73 L 67 230 L 96 309 L 92 329 L 60 354 L 18 370 L -26 380 L -42 386 L -53 407 L -53 434 L -53 433 L -59 434 L -76 442 L -76 450 L -76 454 L -69 466 L -59 479 L -49 491 L -46 494 L -39 504 L -27 524 L -21 534 L 10 583 L 91 621 L 148 621 L 201 621 L 275 575 L 324 500 L 351 404 L 364 304 L 367 207 L 367 169 L 367 158 L 364 133 L 355 111 L 337 97 L 323 97 L 316 97 L 313 98 L 313 100 L 306 60 L 283 -17 L 260 -94 L 243 -172 L 243 -213 L 243 -225 L 261 -239 L 282 -249 L 300 -260 L 300 -268 L 300 -276 L 290 -284 L 283 -284 Z M 148 593 L 113 593 L 45 574 L 20 548 L 82 536 L 138 507 L 147 511 L 160 511 L 179 511 L 207 491 L 207 471 L 207 461 L 185 423 L 158 370 L 136 305 L 136 269 L 136 261 L 138 221 L 144 180 L 157 148 L 169 148 L 174 148 L 189 154 L 189 160 L 189 178 L 183 213 L 183 231 L 183 257 L 210 302 L 239 302 L 256 302 L 277 288 L 289 266 L 294 239 L 294 225 L 294 205 L 286 168 L 286 148 L 286 136 L 303 125 L 314 125 L 323 125 L 331 136 L 334 152 L 334 169 L 334 175 L 334 207 L 332 294 L 322 387 L 299 478 L 258 549 L 194 593 Z M 129 481 L 100 497 L 40 517 L 8 525 L 8 526 L 1 506 L -27 475 L -38 457 L -29 455 L -21 444 L -19 429 L -19 412 L -17 406 L -17 407 L 18 402 L 86 376 L 109 348 L 117 383 L 154 446 L 174 475 L 174 485 L 165 485 L 154 485 L 146 481 Z M 14 503 L 28 503 L 46 486 L 59 484 L 48 479 L 27 472 L 14 472 L -3 472 L -3 489 Z M -24 -40 L -38 -30 L -76 6 L -118 47 L -164 90 L -207 125 L -248 147 L -264 147 L -285 147 L -307 120 L -307 100 L -307 65 L -282 1 L -253 -60 L -228 -124 L -228 -159 L -228 -176 L -253 -202 L -286 -223 L -321 -243 L -331 -254 L 224 -254 L 216 -247 L 212 -227 L 212 -217 L 212 -175 L 227 -94 L 248 -15 L 272 65 L 281 105 L 267 109 L 256 131 L 256 145 L 256 170 L 259 220 L 259 245 L 259 255 L 251 275 L 239 275 L 230 275 L 221 265 L 216 250 L 215 233 L 215 227 L 215 211 L 223 180 L 223 164 L 223 152 L 211 135 L 193 125 L 171 120 L 161 120 L 143 120 L 119 145 L 106 180 L 103 219 L 105 233 L 90 199 L 64 130 L 38 60 L 9 -8 L -9 -40 Z" transform="translate(0.0, 300.0) scale(0.15, -0.15)" class="glyph"/>
</g>
<g transform="translate(170.0, 0)">
<path d="M -59 -231 L -59 -223 L -59 -211 L -67 -190 L -72 -179 L -69 -171 L -63 -165 L -66 -164 L -73 -167 L -76 -171 L -76 -187 L -64 -216 L -62 -231 Z M -51 -227 L -39 -223 L -16 -215 L -5 -210 L -16 -198 L -38 -176 L -52 -169 L -59 -178 L -52 -189 L -48 -213 L -48 -226 Z M 36 -24 L 44 -18 L 55 -22 L 55 -24 L 57 -27 L 57 -29 L 57 -37 L 51 -41 L 48 -49 L 51 -52 L 56 -54 L 71 -41 L 71 -24 L 71 -12 L 46 -5 L 37 -5 L 30 -5 L 14 -9 L 12 -17 Z M 55 -252 L 57 -248 L 61 -241 L 61 -236 L 61 -228 L 58 -215 L 56 -208 L 24 -208 L -39 -228 L -67 -245 L -61 -251 L -57 -254 L -46 -252 L -25 -250 L -14 -250 L 1 -250 L 32 -253 L 47 -255 Z M -62 -264 L -65 -261 L -72 -254 L -76 -252 L -80 -255 L -82 -262 L -77 -270 L -69 -270 L -45 -270 L 2 -266 L 26 -266 L 40 -266 L 68 -271 L 82 -271 L 77 -266 L 64 -265 L 58 -262 L 48 -265 L 32 -263 L 2 -260 L -14 -260 L -25 -260 L -46 -262 L -57 -265 Z M -58 -127 L -76 -107 L -91 -91 L -93 -91 L -94 -91 L -87 -101 L -76 -114 L -63 -127 L -58 -130 L -38 -128 L -16 -100 L -1 -90 L 6 -93 L 10 -110 L 21 -143 L 21 -161 L 21 -172 L 16 -194 L 13 -205 L 33 -198 L 56 -198 L 56 -172 L 64 -143 L 50 -141 L 27 -127 L 18 -118 L 22 -115 L 17 -112 L 17 -104 L 22 -100 L 45 -100 L 55 -122 L 67 -126 L 68 -125 L 70 -117 L 76 -97 L 87 -97 L 94 -101 L 100 -112 L 110 -132 L 118 -142 L 114 -146 L 105 -144 L 87 -140 L 78 -138 L 90 -142 L 114 -150 L 127 -152 L 126 -123 L 86 -78 L 57 -73 L 53 -70 L 53 -64 L 47 -62 L 38 -56 L 38 -49 L 38 -44 L 43 -35 L 45 -30 L 35 -34 L 10 -27 L 4 -40 L 9 -44 L 11 -52 L 27 -52 L 32 -69 L 28 -73 L 5 -81 L -35 -109 L -51 -127 Z M 99 -133 L 96 -127 L 90 -115 L 86 -109 L 81 -117 L 79 -129 Z M -130 -277 L -125 -271 L -93 -260 L -91 -252 L -79 -240 L -72 -236 L -76 -219 L -87 -185 L -87 -167 L -87 -166 L -86 -165 L -86 -164 L -76 -154 L -65 -154 L -56 -154 L -37 -165 L -20 -180 L -4 -196 L 2 -202 L 4 -191 L 10 -172 L 10 -161 L 10 -147 L 0 -120 L -3 -106 L -17 -116 L -41 -140 L -59 -140 L -64 -140 L -78 -128 L -93 -111 L -105 -95 L -107 -91 L -112 -88 L -122 -80 L -127 -75 L -127 -70 L -123 -68 L -129 -64 L -130 -59 L -122 -53 L -111 -56 L -91 -70 L -88 -82 L -79 -89 L -60 -104 L -54 -114 L -23 -80 L 19 -65 L 17 -63 L 4 -61 L -2 -50 L -9 -45 L -4 -24 L 12 5 L 37 5 L 52 5 L 82 -5 L 82 -24 L 82 -46 L 64 -61 L 64 -63 L 97 -69 L 139 -121 L 139 -154 L 139 -155 L 137 -159 L 137 -160 L 129 -164 L 115 -160 L 88 -153 L 74 -148 L 72 -162 L 68 -189 L 68 -203 L 68 -211 L 72 -228 L 72 -236 L 72 -246 L 67 -254 L 78 -259 L 103 -267 L 114 -273 L 117 -278 L 114 -283 L 91 -283 L 49 -275 L 26 -275 L 2 -275 L -45 -280 L -69 -280 L -75 -280 L -81 -277 L -92 -279 L -112 -283 L -123 -283 Z M 8 -34 L 14 -31 L 26 -35 L 23 -35 L 17 -37 L 14 -37 Z" transform="translate(0.0, 300.0) scale(0.15, -0.15)" class="glyph"/>
<path d="M -106 -284 L -111 -284 L -118 -276 L -118 -271 L -118 -265 L -109 -256 L -97 -248 L -84 -242 L -80 -239 L -80 -228 L -88 -210 L -99 -192 L -107 -173 L -107 -162 L -107 -146 L -88 -131 L -76 -131 L -68 -131 L -45 -142 L -23 -157 L -3 -174 L 2 -180 L 38 -101 L 32 -90 L 6 -87 L -4 -84 L -9 -77 L -11 -68 L -18 -65 L -18 -58 L -18 -52 L -10 -44 L -7 -41 L 4 -31 L 16 -15 L 28 -4 L 45 1 L 62 1 L 89 1 L 121 -26 L 138 -69 L 142 -120 L 142 -144 L 142 -156 L 135 -171 L 123 -173 L 116 -194 L 100 -233 L 100 -256 L 104 -260 L 119 -265 L 119 -273 L 119 -278 L 112 -284 L 108 -284 Z M 61 -21 L 46 -21 L 35 -25 L 41 -27 L 53 -32 L 58 -35 L 58 -34 L 60 -34 L 63 -33 L 65 -33 L 73 -33 L 87 -42 L 87 -52 L 87 -55 L 80 -66 L 71 -82 L 64 -103 L 64 -118 L 64 -124 L 64 -136 L 65 -142 L 68 -138 L 69 -123 L 72 -108 L 82 -98 L 94 -98 L 112 -98 L 116 -124 L 116 -140 L 116 -143 L 117 -150 L 119 -152 L 119 -145 L 119 -128 L 116 -85 L 105 -47 L 82 -21 Z M 52 -55 L 44 -50 L 28 -44 L 19 -41 L 17 -44 L 13 -50 L 10 -52 L 8 -55 L 11 -57 L 11 -63 L 12 -66 L 21 -68 L 38 -74 L 46 -80 L 48 -73 L 56 -61 L 60 -55 Z M 2 -208 L -6 -203 L -26 -185 L -46 -167 L -67 -154 L -76 -154 L -79 -154 L -85 -156 L -85 -161 L -85 -171 L -76 -189 L -66 -207 L -57 -227 L -57 -239 L -57 -247 L -69 -258 L -75 -262 L 79 -262 L 79 -236 L 95 -192 L 101 -167 L 95 -165 L 94 -153 L 94 -148 L 94 -118 L 90 -124 L 89 -141 L 88 -156 L 79 -166 L 66 -166 L 50 -166 L 43 -146 L 15 -208 Z" transform="translate(0.0, 256.8) scale(0.15, -0.15)" class="glyph"/>
<path d="M -106 -284 L -111 -284 L -118 -276 L -118 -271 L -118 -265 L -109 -256 L -97 -248 L -84 -242 L -80 -239 L -80 -228 L -88 -210 L -99 -192 L -107 -173 L -107 -162 L -107 -146 L -88 -131 L -76 -131 L -68 -131 L -45 -142 L -23 -157 L -3 -174 L 2 -180 L 38 -101 L 32 -90 L 6 -87 L -4 -84 L -9 -77 L -11 -68 L -18 -65 L -18 -58 L -18 -52 L -10 -44 L -7 -41 L 4 -31 L 16 -15 L 28 -4 L 45 1 L 62 1 L 89 1 L 121 -26 L 138 -69 L 142 -120 L 142 -144 L 142 -156 L 135 -171 L 123 -173 L 116 -194 L 100 -233 L 100 -256 L 104 -260 L 119 -265 L 119 -273 L 119 -278 L 112 -284 L 108 -284 Z M 61 -21 L 46 -21 L 35 -25 L 41 -27 L 53 -32 L 58 -35 L 58 -34 L 60 -34 L 63 -33 L 65 -33 L 73 -33 L 87 -42 L 87 -52 L 87 -55 L 80 -66 L 71 -82 L 64 -103 L 64 -118 L 64 -124 L 64 -136 L 65 -142 L 68 -138 L 69 -123 L 72 -108 L 82 -98 L 94 -98 L 112 -98 L 116 -124 L 116 -140 L 116 -143 L 117 -150 L 119 -152 L 119 -145 L 119 -128 L 116 -85 L 105 -47 L 82 -21 Z M 52 -55 L 44 -50 L 28 -44 L 19 -41 L 17 -44 L 13 -50 L 10 -52 L 8 -55 L 11 -57 L 11 -63 L 12 -66 L 21 -68 L 38 -74 L 46 -80 L 48 -73 L 56 -61 L 60 -55 Z M 2 -208 L -6 -203 L -26 -185 L -46 -167 L -67 -154 L -76 -154 L -79 -154 L -85 -156 L -85 -161 L -85 -171 L -76 -189 L -66 -207 L -57 -227 L -57 -239 L -57 -247 L -69 -258 L -75 -262 L 79 -262 L 79 -236 L 95 -192 L 101 -167 L 95 -165 L 94 -153 L 94 -148 L 94 -118 L 90 -124 L 89 -141 L 88 -156 L 79 -166 L 66 -166 L 50 -166 L 43 -146 L 15 -208 Z" transform="translate(0.0, 214.05) scale(0.15, -0.15)" class="glyph"/>
</g>
</svg>