<svg width="1200" height="600" xmlns="http://www.w3.org/2000/svg">
<style>
.glyph { fill: black; stroke: none; }
.glyph-missing { fill: red; stroke: red; stroke-width: 1; opacity: 0.5; }
.baseline { stroke: #ccc; stroke-width: 1; }
.debug-text { font-family: monospace; font-size: 10px; fill: #666; }
</style>
<line x1="0" y1="300" x2="1200" y2="300" class="baseline"/>
<g transform="translate(50, 0)">
<path d="M -195 213 L -221 246 L -277 309 L -316 334 L -319 346 L -335 374 L -346 385 L -344 382 L -340 374 L -348 363 L -351 363 L -324 341 L -315 332 L -311 321 L -310 319 L -306 311 L -273 272 L -235 231 L -203 199 L -198 199 L -177 199 L -134 219 L -93 250 L -55 286 L -39 301 L -17 324 L 7 320 L 11 301 L 21 265 L 26 248 L 37 211 L 54 141 L 54 103 L 54 72 L 40 12 L 31 -18 L 29 -25 L 27 -36 L 25 -42 L 62 -31 L 131 -18 L 172 -18 L 172 28 L 184 116 L 194 162 L 176 167 L 136 182 L 97 201 L 62 224 L 51 239 L 62 249 L 46 259 L 46 283 L 60 295 L 99 295 L 151 252 L 165 224 L 182 216 L 205 210 L 206 211 L 206 213 L 206 216 L 208 222 L 210 234 L 218 261 L 231 285 L 250 302 L 265 304 L 286 295 L 291 286 L 300 267 L 304 259 L 316 234 L 342 187 L 362 164 L 351 153 L 298 164 L 208 189 L 160 204 L 159 205 L 139 217 L 134 222 L 126 234 L 99 259 L 85 266 L 83 262 L 87 260 L 100 248 L 114 234 L 127 220 L 131 215 L 139 207 L 180 191 L 233 174 L 289 158 L 313 151 L 332 146 L 339 144 L 351 140 L 358 138 L 368 135 L 385 129 L 394 126 L 397 129 L 396 155 L 372 213 L 360 236 L 356 246 L 354 250 L 346 268 L 333 297 L 313 321 L 285 343 L 262 355 L 219 379 L 171 384 L 160 393 L 160 413 L 140 418 L 111 440 L 111 460 L 111 471 L 118 493 L 123 502 L 136 512 L 136 517 L 136 522 L 134 524 L 121 513 L 99 508 L 18 529 L 16 518 L 6 500 L 0 490 L -1 488 L -3 486 L -3 485 L -2 486 L -3 484 L 8 481 L 14 469 L 16 461 L 17 458 L 17 456 L 20 447 L 50 445 L 81 423 L 89 396 L 78 385 L 32 373 L -33 344 L -83 309 L -127 265 L -152 238 L -154 235 L -160 229 L -162 226 L -175 213 Z M 309 189 L 286 230 L 279 242 L 268 263 L 261 275 L 251 265 L 242 233 L 239 219 L 238 214 L 238 208 L 237 204 Z M 98 534 L 112 546 L 131 553 L 150 553 L 168 533 L 168 517 L 168 497 L 150 486 L 142 472 L 142 460 L 142 451 L 160 442 L 170 440 L 192 461 L 217 511 L 217 536 L 217 555 L 196 579 L 164 593 L 124 598 L 105 598 L 78 598 L 30 580 L 22 556 Z M -197 -122 L -197 -119 L -196 -113 L -195 -102 L -195 -97 L -195 -60 L -217 10 L -236 45 L -229 57 L -214 82 L -206 93 L -221 98 L -235 97 L -254 84 L -254 73 L -254 38 L -238 -31 L -227 -65 L -222 -82 L -213 -111 L -210 -126 Z M -94 -84 L -60 -73 L -24 -57 L -30 -51 L -43 -38 L -49 -30 L -78 -1 L -141 57 L -179 79 L -183 76 L -184 71 L -186 67 L -191 61 L -193 58 L -202 46 L -185 16 L -162 -56 L -162 -91 L -162 -96 L -163 -104 L -163 -109 L -146 -102 L -111 -90 Z M -344 -249 L -342 -256 L -339 -255 L -323 -250 L -305 -244 L -291 -239 L -290 -240 L -288 -237 L -315 -240 Z M 166 -189 L 174 -177 L 186 -152 L 186 -138 L 186 -128 L 183 -108 L 181 -98 L 180 -95 L 180 -90 L 179 -87 L 178 -84 L 176 -74 L 173 -55 L 172 -45 L 103 -45 L -27 -87 L -91 -112 L -96 -114 L -103 -116 L -108 -118 L -112 -120 L -120 -123 L -124 -125 L -137 -130 L -148 -133 L -168 -140 L -209 -156 L -227 -165 L -221 -170 L -209 -180 L -203 -185 L -200 -188 L -194 -193 L -190 -196 L -126 -181 L -56 -181 L -19 -181 L 55 -188 L 90 -193 L 102 -194 L 126 -196 L 138 -198 Z M -207 -221 L -222 -206 L -235 -197 L -237 -194 L -242 -190 L -244 -188 L -248 -186 L -249 -183 L -268 -199 L -273 -216 L -265 -227 L -247 -245 L -231 -245 L -139 -245 L -49 -236 L -19 -234 L 42 -231 L 73 -231 L 111 -231 L 185 -240 L 223 -245 L 230 -246 L 237 -247 L 243 -248 L 251 -249 L 260 -250 L 202 -232 L 197 -226 L 181 -218 L 173 -216 L 142 -224 L 94 -218 L -6 -208 L -56 -208 L -128 -208 L -193 -224 Z M -417 -267 L -403 -250 L -386 -241 L -349 -227 L -329 -221 L -325 -219 L -320 -217 L -308 -214 L -303 -212 L -298 -186 L -259 -152 L -236 -139 L -253 -88 L -285 19 L -285 73 L -285 84 L -273 103 L -253 117 L -230 125 L -218 125 L -212 125 L -190 117 L -167 106 L -146 94 L -140 90 L -102 65 L -34 -1 L -5 -35 L 5 -2 L 22 68 L 22 103 L 22 136 L 6 199 L -5 231 L -12 253 L -19 278 L -20 281 L -28 274 L -46 258 L -56 250 L -71 236 L -102 208 L -137 186 L -176 172 L -198 172 L -210 172 L -256 211 L -304 262 L -344 313 L -350 325 L -365 336 L -394 362 L -408 376 L -410 389 L -399 399 L -397 399 L -400 400 L -406 404 L -408 406 L -414 409 L -417 411 L -419 427 L -395 443 L -356 431 L -299 386 L -291 351 L -259 330 L -206 277 L -184 248 L -157 277 L -110 325 L -57 364 L 8 394 L 52 405 L 48 413 L 43 417 L 34 419 L 14 421 L 5 422 L 2 422 L -1 427 L -2 429 L -2 431 L -4 433 L -7 442 L -16 459 L -26 459 L -37 475 L -35 481 L -30 493 L -28 498 L -26 502 L -21 510 L -13 526 L -13 536 L -13 584 L 52 625 L 105 625 L 132 625 L 184 617 L 225 597 L 249 563 L 249 536 L 249 504 L 220 443 L 192 420 L 192 410 L 199 410 L 223 404 L 249 396 L 271 387 L 275 382 L 281 379 L 298 371 L 328 352 L 341 338 L 353 323 L 375 280 L 386 256 L 389 250 L 390 248 L 391 244 L 392 242 L 398 233 L 411 203 L 421 169 L 428 138 L 428 127 L 428 117 L 410 102 L 400 97 L 392 99 L 377 104 L 369 106 L 361 108 L 346 113 L 338 115 L 309 123 L 253 139 L 224 150 L 215 104 L 203 15 L 203 -31 L 203 -45 L 207 -71 L 210 -85 L 210 -87 L 212 -100 L 216 -125 L 216 -138 L 216 -164 L 200 -193 L 208 -196 L 217 -204 L 221 -209 L 224 -210 L 229 -212 L 237 -214 L 267 -222 L 324 -241 L 350 -256 L 358 -267 L 352 -282 L 315 -282 L 244 -275 L 209 -270 L 174 -265 L 106 -258 L 73 -258 L 35 -258 L -42 -261 L -80 -265 L -117 -268 L -193 -272 L -231 -272 L -250 -272 L -266 -263 L -282 -264 L -312 -269 L -326 -272 L -342 -276 L -377 -281 L -397 -282 Z M 15 508 L 31 520 L 54 518 L 74 504 L 53 499 L 49 499 L 43 497 L 35 495 L 31 495 Z" transform="translate(0.0, 300.0) scale(0.15, -0.15)" class="glyph"/>
</g>
<g transform="translate(170.0, 0)">
<path d="M -106 -284 L -111 -284 L -118 -276 L -118 -271 L -118 -265 L -109 -256 L -97 -248 L -84 -242 L -80 -239 L -80 -228 L -88 -210 L -99 -192 L -107 -173 L -107 -162 L -107 -146 L -88 -131 L -76 -131 L -68 -131 L -45 -142 L -23 -157 L -3 -174 L 2 -180 L 38 -101 L 32 -90 L 6 -87 L -4 -84 L -9 -77 L -11 -68 L -18 -65 L -18 -58 L -18 -52 L -10 -44 L -7 -41 L 4 -31 L 16 -15 L 28 -4 L 45 1 L 62 1 L 89 1 L 121 -26 L 138 -69 L 142 -120 L 142 -144 L 142 -156 L 135 -171 L 123 -173 L 116 -194 L 100 -233 L 100 -256 L 104 -260 L 119 -265 L 119 -273 L 119 -278 L 112 -284 L 108 -284 Z M 61 -21 L 46 -21 L 35 -25 L 41 -27 L 53 -32 L 58 -35 L 58 -34 L 60 -34 L 63 -33 L 65 -33 L 73 -33 L 87 -42 L 87 -52 L 87 -55 L 80 -66 L 71 -82 L 64 -103 L 64 -118 L 64 -124 L 64 -136 L 65 -142 L 68 -138 L 69 -123 L 72 -108 L 82 -98 L 94 -98 L 112 -98 L 116 -124 L 116 -140 L 116 -143 L 117 -150 L 119 -152 L 119 -145 L 119 -128 L 116 -85 L 105 -47 L 82 -21 Z M 52 -55 L 44 -50 L 28 -44 L 19 -41 L 17 -44 L 13 -50 L 10 -52 L 8 -55 L 11 -57 L 11 -63 L 12 -66 L 21 -68 L 38 -74 L 46 -80 L 48 -73 L 56 -61 L 60 -55 Z M 2 -208 L -6 -203 L -26 -185 L -46 -167 L -67 -154 L -76 -154 L -79 -154 L -85 -156 L -85 -161 L -85 -171 L -76 -189 L -66 -207 L -57 -227 L -57 -239 L -57 -247 L -69 -258 L -75 -262 L 79 -262 L 79 -236 L 95 -192 L 101 -167 L 95 -165 L 94 -153 L 94 -148 L 94 -118 L 90 -124 L 89 -141 L 88 -156 L 79 -166 L 66 -166 L 50 -166 L 43 -146 L 15 -208 Z" transform="translate(0.0, 300.0) scale(0.15, -0.15)" class="glyph"/>
<path d="M -106 -284 L -111 -284 L -118 -276 L -118 -271 L -118 -265 L -109 -256 L -97 -248 L -84 -242 L -80 -239 L -80 -228 L -88 -210 L -99 -192 L -107 -173 L -107 -162 L -107 -146 L -88 -131 L -76 -131 L -68 -131 L -45 -142 L -23 -157 L -3 -174 L 2 -180 L 38 -101 L 32 -90 L 6 -87 L -4 -84 L -9 -77 L -11 -68 L -18 -65 L -18 -58 L -18 -52 L -10 -44 L -7 -41 L 4 -31 L 16 -15 L 28 -4 L 45 1 L 62 1 L 89 1 L 121 -26 L 138 -69 L 142 -120 L 142 -144 L 142 -156 L 135 -171 L 123 -173 L 116 -194 L 100 -233 L 100 -256 L 104 -260 L 119 -265 L 119 -273 L 119 -278 L 112 -284 L 108 -284 Z M 61 -21 L 46 -21 L 35 -25 L 41 -27 L 53 -32 L 58 -35 L 58 -34 L 60 -34 L 63 -33 L 65 -33 L 73 -33 L 87 -42 L 87 -52 L 87 -55 L 80 -66 L 71 -82 L 64 -103 L 64 -118 L 64 -124 L 64 -136 L 65 -142 L 68 -138 L 69 -123 L 72 -108 L 82 -98 L 94 -98 L 112 -98 L 116 -124 L 116 -140 L 116 -143 L 117 -150 L 119 -152 L 119 -145 L 119 -128 L 116 -85 L 105 -47 L 82 -21 Z M 52 -55 L 44 -50 L 28 -44 L 19 -41 L 17 -44 L 13 -50 L 10 -52 L 8 -55 L 11 -57 L 11 -63 L 12 -66 L 21 -68 L 38 -74 L 46 -80 L 48 -73 L 56 -61 L 60 -55 Z M 2 -208 L -6 -203 L -26 -185 L -46 -167 L -67 -154 L -76 -154 L -79 -154 L -85 -156 L -85 -161 L -85 -171 L -76 -189 L -66 -207 L -57 -227 L -57 -239 L -57 -247 L -69 -258 L -75 -262 L 79 -262 L 79 -236 L 95 -192 L 101 -167 L 95 -165 L 94 -153 L 94 -148 L 94 -118 L 90 -124 L 89 -141 L 88 -156 L 79 -166 L 66 -166 L 50 -166 L 43 -146 L 15 -208 Z" transform="translate(0.0, 257.25) scale(0.15, -0.15)" class="glyph"/>
<path d="M -59 -231 L -59 -223 L -59 -211 L -67 -190 L -72 -179 L -69 -171 L -63 -165 L -66 -164 L -73 -167 L -76 -171 L -76 -187 L -64 -216 L -62 -231 Z M -51 -227 L -39 -223 L -16 -215 L -5 -210 L -16 -198 L -38 -176 L -52 -169 L -59 -178 L -52 -189 L -48 -213 L -48 -226 Z M 36 -24 L 44 -18 L 55 -22 L 55 -24 L 57 -27 L 57 -29 L 57 -37 L 51 -41 L 48 -49 L 51 -52 L 56 -54 L 71 -41 L 71 -24 L 71 -12 L 46 -5 L 37 -5 L 30 -5 L 14 -9 L 12 -17 Z M 55 -252 L 57 -248 L 61 -241 L 61 -236 L 61 -228 L 58 -215 L 56 -208 L 24 -208 L -39 -228 L -67 -245 L -61 -251 L -57 -254 L -46 -252 L -25 -250 L -14 -250 L 1 -250 L 32 -253 L 47 -255 Z M -62 -264 L -65 -261 L -72 -254 L -76 -252 L -80 -255 L -82 -262 L -77 -270 L -69 -270 L -45 -270 L 2 -266 L 26 -266 L 40 -266 L 68 -271 L 82 -271 L 77 -266 L 64 -265 L 58 -262 L 48 -265 L 32 -263 L 2 -260 L -14 -260 L -25 -260 L -46 -262 L -57 -265 Z M -58 -127 L -76 -107 L -91 -91 L -93 -91 L -94 -91 L -87 -101 L -76 -114 L -63 -127 L -58 -130 L -38 -128 L -16 -100 L -1 -90 L 6 -93 L 10 -110 L 21 -143 L 21 -161 L 21 -172 L 16 -194 L 13 -205 L 33 -198 L 56 -198 L 56 -172 L 64 -143 L 50 -141 L 27 -127 L 18 -118 L 22 -115 L 17 -112 L 17 -104 L 22 -100 L 45 -100 L 55 -122 L 67 -126 L 68 -125 L 70 -117 L 76 -97 L 87 -97 L 94 -101 L 100 -112 L 110 -132 L 118 -142 L 114 -146 L 105 -144 L 87 -140 L 78 -138 L 90 -142 L 114 -150 L 127 -152 L 126 -123 L 86 -78 L 57 -73 L 53 -70 L 53 -64 L 47 -62 L 38 -56 L 38 -49 L 38 -44 L 43 -35 L 45 -30 L 35 -34 L 10 -27 L 4 -40 L 9 -44 L 11 -52 L 27 -52 L 32 -69 L 28 -73 L 5 -81 L -35 -109 L -51 -127 Z M 99 -133 L 96 -127 L 90 -115 L 86 -109 L 81 -117 L 79 -129 Z M -130 -277 L -125 -271 L -93 -260 L -91 -252 L -79 -240 L -72 -236 L -76 -219 L -87 -185 L -87 -167 L -87 -166 L -86 -165 L -86 -164 L -76 -154 L -65 -154 L -56 -154 L -37 -165 L -20 -180 L -4 -196 L 2 -202 L 4 -191 L 10 -172 L 10 -161 L 10 -147 L 0 -120 L -3 -106 L -17 -116 L -41 -140 L -59 -140 L -64 -140 L -78 -128 L -93 -111 L -105 -95 L -107 -91 L -112 -88 L -122 -80 L -127 -75 L -127 -70 L -123 -68 L -129 -64 L -130 -59 L -122 -53 L -111 -56 L -91 -70 L -88 -82 L -79 -89 L -60 -104 L -54 -114 L -23 -80 L 19 -65 L 17 -63 L 4 -61 L -2 -50 L -9 -45 L -4 -24 L 12 5 L 37 5 L 52 5 L 82 -5 L 82 -24 L 82 -46 L 64 -61 L 64 -63 L 97 -69 L 139 -121 L 139 -154 L 139 -155 L 137 -159 L 137 -160 L 129 -164 L 115 -160 L 88 -153 L 74 -148 L 72 -162 L 68 -189 L 68 -203 L 68 -211 L 72 -228 L 72 -236 L 72 -246 L 67 -254 L 78 -259 L 103 -267 L 114 -273 L 117 -278 L 114 -283 L 91 -283 L 49 -275 L 26 -275 L 2 -275 L -45 -280 L -69 -280 L -75 -280 L -81 -277 L -92 -279 L -112 -283 L -123 -283 Z M 8 -34 L 14 -31 L 26 -35 L 23 -35 L 17 -37 L 14 -37 Z" transform="translate(0.0, 214.5) scale(0.15, -0.15)" class="glyph"/>
</g>
<g transform="translate(290.0, 0)">
<path d="M -518 -284 L -529 -284 L -543 -259 L -543 -250 L -543 -227 L -519 -190 L -483 -157 L -440 -126 L -404 -95 L -380 -60 L -380 -39 L -380 32 L -417 168 L -462 301 L -499 437 L -499 508 L -499 534 L -488 587 L -463 629 L -422 656 L -391 656 L -362 656 L -296 614 L -228 546 L -160 463 L -98 382 L -46 310 L -28 289 L 24 453 L 107 782 L 150 949 L 146 993 L 103 1043 L 42 1074 L -28 1098 L -59 1114 L -70 1136 L -73 1184 L -73 1208 L -87 1210 L -110 1226 L -105 1238 L -92 1274 L -49 1337 L -35 1372 L -30 1386 L -23 1415 L -18 1429 L -4 1465 L 47 1519 L 111 1557 L 185 1576 L 222 1576 L 282 1576 L 374 1519 L 441 1422 L 488 1294 L 518 1151 L 534 1002 L 542 865 L 543 746 L 543 705 L 543 669 L 540 604 L 528 555 L 503 527 L 480 527 L 476 527 L 467 528 L 462 529 L 451 444 L 416 276 L 383 109 L 359 -60 L 359 -147 L 359 -176 L 379 -202 L 406 -219 L 435 -238 L 443 -259 L 422 -284 Z M -34 235 L -53 254 L -107 325 L -169 410 L -237 498 L -304 570 L -366 616 L -391 616 L -411 616 L -437 596 L -452 565 L -458 529 L -458 513 L -458 442 L -421 306 L -378 171 L -341 35 L -341 -36 L -341 -74 L -382 -125 L -436 -169 L -490 -215 L -503 -246 L 373 -246 L 355 -246 L 334 -224 L 323 -192 L 321 -156 L 321 -143 L 321 -56 L 344 115 L 376 286 L 411 456 L 424 541 L 397 548 L 384 591 L 384 614 L 384 665 L 392 768 L 392 819 L 392 828 L 389 851 L 381 873 L 367 888 L 355 888 L 341 888 L 325 863 L 318 828 L 317 793 L 317 783 L 317 750 L 328 685 L 328 652 L 328 619 L 283 572 L 242 572 L 216 572 L 184 616 L 167 676 L 162 739 L 162 758 L 162 777 L 164 815 L 166 834 L 142 761 L 102 611 L 62 461 L 17 313 L -12 241 Z M 503 760 L 504 807 L 501 958 L 484 1130 L 449 1305 L 386 1446 L 291 1535 L 223 1535 L 161 1535 L 56 1482 L 21 1431 L 72 1417 L 166 1374 L 208 1343 L 224 1351 L 241 1351 L 273 1351 L 304 1308 L 304 1279 L 304 1263 L 282 1206 L 252 1143 L 224 1082 L 218 1062 L 202 1008 L 200 895 L 200 839 L 200 827 L 201 784 L 206 734 L 213 681 L 225 639 L 242 612 L 253 613 L 268 614 L 287 632 L 286 645 L 283 682 L 277 753 L 277 790 L 277 808 L 284 856 L 302 898 L 332 927 L 356 927 L 383 927 L 413 895 L 429 850 L 433 799 L 433 779 L 433 739 L 423 660 L 423 620 L 423 614 L 425 596 L 433 579 L 452 567 L 468 567 L 480 567 L 499 585 L 500 605 Z M -28 1142 L 1 1136 L 58 1115 L 110 1084 L 153 1042 L 168 1016 L 178 1087 L 235 1219 L 264 1283 L 264 1291 L 257 1313 L 247 1313 L 230 1313 L 219 1305 L 196 1306 L 153 1336 L 59 1380 L 9 1395 L 5 1374 L -12 1337 L -33 1301 L -54 1265 L -61 1245 L -45 1241 L -33 1216 L -29 1185 L -30 1153 Z M 17 1334 L 34 1334 L 60 1312 L 71 1302 L 45 1288 L 16 1288 L 8 1288 L -6 1295 L -6 1305 L -6 1308 L -4 1313 L -3 1316 Z" transform="translate(0.0, 300.0) scale(0.15, -0.15)" class="glyph"/>
</g>
</svg>